# xmcd
#
# Track frame offsets:
#	150
#	18151
#	37062
#	49405
#	66046
#	83036
#	101348
#	117382
#	138924
#	155116
#	173777
#	191699
#	208138
#	224385
#	240459
#	252829
#	266887
#	283510
#	301900
#	317062
#	332085
#
# Disc length: 4699 seconds
#
# Revision: 1
# Processed by: cddbd v1.5.2PL0 Copyright (c) Steve Scherf et al.
# Submitted via: audiograbber 1.83.01
#
DISCID=36125915
DTITLE=Various Artist - Sing Meinen Song Cd1 2877
DYEAR=1900
DGENRE=
TTITLE0=Seven - Diggin' In The Dirt (Stefanie Heinzmann)
TTITLE1=Loco Escrito - My Man Is A Mean Man (Stefanie Heinzmann)
TTITLE2=Steff La Cheffe - Frömde Fötzu (Stranger In This World) (Stefanie Heinz
TTITLE2=mann)
TTITLE3=Marc Storace - Devil On My Shoulder (Stefanie Heinzmann)
TTITLE4=Ritschi - In The End (Stefanie Heinzmann)
TTITLE5=Francine Jordi - Mother's Heart (Stefanie Heinzmann)
TTITLE6=Ritschi - Adios (Loco Escrito)
TTITLE7=Steff La Cheffe - Eres Capaz (Loco Escrito)
TTITLE8=Marc Storace - Bien Contento (Loco Escrito)
TTITLE9=Stefanie Heinzmann - Hasta El Amanecer (Loco Escrito)
TTITLE10=Francine Jordi - Mi Culpa (Loco Escrito)
TTITLE11=Seven - Punto (Loco Escrito)
TTITLE12=Marc Storace - Just When I Needed You Most (Wo Ig Di Am Meischte Ha Br
TTITLE12=ucht) (Francine Jordi)
TTITLE13=Loco Excrito - Träne (Francine Jordi)
TTITLE14=Steff La Cheffe - Dans Le Jardin De Mon âme (Francine Jordi)
TTITLE15=Ritschi - Da Geit No Meh (Da Geht Noch Mehr) (Francine Jordi)
TTITLE16=Stefanie Heinzman - Üses Läbe (Francine Jordi)
TTITLE17=Seven - Füür Vo Dr Sehnsucht (Francine Jordi)
TTITLE18=Loco Escrito - Probier Mi Doch Mal Us (Ritschi/plüsch)
TTITLE19=Francine Jordi - Schisstäg (Ritschi/plüsch)
TTITLE20=Seven - Ufo (Ritschi/plüsch)
EXTD=
EXTT0=
EXTT1=
EXTT2=
EXTT3=
EXTT4=
EXTT5=
EXTT6=
EXTT7=
EXTT8=
EXTT9=
EXTT10=
EXTT11=
EXTT12=
EXTT13=
EXTT14=
EXTT15=
EXTT16=
EXTT17=
EXTT18=
EXTT19=
EXTT20=
PLAYORDER=
